<svg xmlns="http://www.w3.org/2000/svg" width="98.078" height="98.078" viewBox="0 0 98.078 98.078">
    <defs>
        <linearGradient id="gxm34kr5ba" x1=".255" y1=".122" x2=".806" y2=".897" gradientUnits="objectBoundingBox">
            <stop offset="0" stop-color="#6b22ff"/>
            <stop offset="1" stop-color="#ff1d1d"/>
        </linearGradient>
        <clipPath id="lniijd25sb">
            <path data-name="사각형 148" transform="translate(0 .001)" style="fill:url(#gxm34kr5ba)" d="M0 0h98.078v98.078H0z"/>
        </clipPath>
    </defs>
    <g data-name="그룹 284">
        <g data-name="그룹 283" style="clip-path:url(#lniijd25sb)" transform="translate(0 -.001)">
            <path data-name="패스 253" d="M53.294 1.67a6.259 6.259 0 0 1 9.942 1.978A6.261 6.261 0 0 0 71.1 6.9a6.259 6.259 0 0 1 8.428 5.632 6.261 6.261 0 0 0 6.017 6.017 6.259 6.259 0 0 1 5.632 8.428 6.261 6.261 0 0 0 3.256 7.862 6.259 6.259 0 0 1 1.978 9.942 6.26 6.26 0 0 0 0 8.509 6.259 6.259 0 0 1-1.978 9.942 6.261 6.261 0 0 0-3.258 7.868 6.259 6.259 0 0 1-5.632 8.428 6.261 6.261 0 0 0-6.017 6.017 6.259 6.259 0 0 1-8.426 5.63 6.261 6.261 0 0 0-7.862 3.257 6.259 6.259 0 0 1-9.942 1.977 6.26 6.26 0 0 0-8.509 0 6.259 6.259 0 0 1-9.942-1.977 6.261 6.261 0 0 0-7.862-3.257 6.259 6.259 0 0 1-8.428-5.632 6.261 6.261 0 0 0-6.017-6.017A6.259 6.259 0 0 1 6.9 71.1a6.261 6.261 0 0 0-3.256-7.862 6.259 6.259 0 0 1-1.974-9.944 6.26 6.26 0 0 0 0-8.509 6.259 6.259 0 0 1 1.978-9.942A6.261 6.261 0 0 0 6.9 26.981a6.259 6.259 0 0 1 5.632-8.428 6.261 6.261 0 0 0 6.017-6.017A6.259 6.259 0 0 1 26.981 6.9a6.261 6.261 0 0 0 7.862-3.256 6.259 6.259 0 0 1 9.942-1.974 6.26 6.26 0 0 0 8.509 0" style="fill:url(#gxm34kr5ba)"/>
        </g>
    </g>
</svg>
